<?xml version="1.0" encoding="iso-8859-1"?>
<!-- Generator: Adobe Illustrator 19.0.0, SVG Export Plug-In . SVG Version: 6.00 Build 0)  -->
<svg version="1.1" id="Capa_1" xmlns="http://www.w3.org/2000/svg" xmlns:xlink="http://www.w3.org/1999/xlink" x="0px" y="0px"
	 viewBox="0 0 511.47 511.47" style="enable-background:new 0 0 511.47 511.47;" xml:space="preserve">
<g>
	<g>
		<g>
			<path d="M459.034,255.735c0-126.759-102.758-229.517-229.517-229.517S0,128.976,0,255.735s102.758,229.517,229.517,229.517
				C356.226,485.131,458.914,382.444,459.034,255.735z M414.145,358.854c-0.824,4.198-4.504,7.226-8.782,7.227
				c-2.337-0.033-4.575-0.948-6.268-2.56c-3.055-2.995-3.562-7.734-1.212-11.309c2.351-3.575,6.902-4.986,10.863-3.368
				C412.707,350.461,414.969,354.655,414.145,358.854z M441.379,255.735c-0.024,4.21-3.018,7.817-7.152,8.616
				c-4.133,0.799-8.256-1.432-9.848-5.329c-1.592-3.897-0.21-8.377,3.301-10.7s8.174-1.844,11.139,1.145
				C440.43,251.161,441.344,253.398,441.379,255.735z M419.397,196.942c3.506-3.267,8.942-3.267,12.448,0
				c1.685,1.651,2.638,3.909,2.647,6.268c-0.114,4.827-4,8.713-8.828,8.828c-2.359-0.008-4.616-0.962-6.268-2.647
				c-1.658-1.627-2.583-3.858-2.56-6.181C416.813,200.861,417.736,198.602,419.397,196.942L419.397,196.942z M419.397,302.08
				L419.397,302.08c3.47-3.358,8.978-3.358,12.448,0c1.682,1.616,2.637,3.844,2.647,6.177c-0.008,2.359-0.962,4.616-2.647,6.268
				c-1.626,1.658-3.858,2.583-6.181,2.56c-2.348,0.023-4.607-0.9-6.267-2.56c-1.661-1.66-2.583-3.919-2.56-6.267
				C416.814,305.935,417.738,303.705,419.397,302.08z M399.095,147.95c2.995-3.055,7.734-3.562,11.309-1.212
				c3.575,2.351,4.986,6.902,3.368,10.863s-5.812,6.223-10.01,5.399c-4.198-0.824-7.226-4.504-7.226-8.782
				C396.565,151.88,397.48,149.64,399.095,147.95z M366.875,105.929L366.875,105.929c1.632-1.684,3.877-2.634,6.222-2.634
				s4.59,0.95,6.222,2.634c1.661,1.66,2.584,3.919,2.56,6.268c0.023,2.323-0.902,4.555-2.56,6.181
				c-2.487,2.593-6.323,3.366-9.621,1.94c-2.123-0.945-3.821-2.644-4.767-4.767c-0.453-1.061-0.693-2.2-0.707-3.353
				C364.216,109.834,365.173,107.569,366.875,105.929z M322.91,76.533c0.449-1.07,1.077-2.055,1.858-2.914
				c2.578-2.427,6.325-3.149,9.621-1.854c1.069,0.449,2.054,1.076,2.914,1.854c3.414,3.483,3.414,9.056,0,12.539
				c-0.846,0.796-1.834,1.425-2.914,1.854c-2.139,0.937-4.572,0.937-6.711,0c-3.362-1.274-5.554-4.531-5.47-8.125
				C322.22,78.733,322.459,77.594,322.91,76.533z M275.772,53.404L275.772,53.404c3.505-3.354,9.029-3.354,12.535,0
				c1.658,1.627,2.582,3.859,2.56,6.181c0.024,2.348-0.899,4.607-2.56,6.268c-0.825,0.844-1.817,1.507-2.914,1.944
				c-2.16,0.822-4.547,0.822-6.707,0c-1.072-0.482-2.057-1.139-2.914-1.944C272.358,62.405,272.358,56.851,275.772,53.404z
				 M221.393,49.343L221.393,49.343c0.449-1.069,1.077-2.053,1.858-2.91c2.526-2.546,6.34-3.311,9.652-1.936
				c3.312,1.375,5.463,4.617,5.442,8.203c-0.02,0.591-0.079,1.18-0.177,1.763c-0.098,0.553-0.277,1.089-0.53,1.591
				c-0.194,0.563-0.462,1.098-0.797,1.591c-0.349,0.44-0.703,0.879-1.056,1.323c-3.481,3.414-9.054,3.414-12.534,0
				c-1.627-1.682-2.544-3.927-2.561-6.267C220.702,51.546,220.941,50.405,221.393,49.343z M170.724,53.403
				c0.785-0.849,1.749-1.512,2.823-1.94c3.309-1.319,7.085-0.558,9.625,1.94c1.691,1.629,2.647,3.876,2.647,6.224
				s-0.955,4.595-2.647,6.224c-1.627,1.658-3.858,2.583-6.181,2.56c-1.176,0.009-2.344-0.2-3.444-0.616
				c-1.056-0.462-2.015-1.122-2.823-1.944C167.31,62.405,167.31,56.851,170.724,53.403L170.724,53.403z M119.875,76.533
				c0.807-2.215,2.552-3.96,4.767-4.767c1.611-0.704,3.4-0.889,5.121-0.53c0.553,0.098,1.089,0.277,1.591,0.53
				c0.563,0.194,1.098,0.462,1.591,0.797c0.44,0.353,0.879,0.703,1.323,1.056c0.778,0.86,1.405,1.845,1.854,2.914
				c0.495,1.047,0.737,2.196,0.707,3.353c-0.016,0.593-0.075,1.183-0.177,1.767c-0.098,0.553-0.277,1.089-0.53,1.59
				c-0.194,0.562-0.462,1.095-0.797,1.586c-0.349,0.444-0.703,0.884-1.056,1.328c-0.421,0.377-0.862,0.73-1.323,1.056
				c-0.51,0.329-1.042,0.624-1.591,0.884c-0.518,0.188-1.05,0.336-1.591,0.444c-0.576,0.143-1.17,0.201-1.763,0.172
				c-1.149,0.019-2.29-0.19-3.358-0.616c-1.066-0.49-2.047-1.144-2.909-1.94c-0.381-0.42-0.735-0.864-1.06-1.328
				c-0.335-0.491-0.603-1.024-0.797-1.586c-0.254-0.501-0.431-1.037-0.526-1.591c-0.104-0.584-0.163-1.175-0.177-1.767
				C119.186,78.733,119.424,77.594,119.875,76.533z M77.772,108.752c1.11-2.741,3.529-4.736,6.43-5.305
				c2.902-0.569,5.894,0.364,7.958,2.482c0.851,0.783,1.514,1.748,1.94,2.823c0.446,1.094,0.686,2.262,0.707,3.444
				c-0.014,0.563-0.073,1.123-0.177,1.677c-0.177,0.621-0.353,1.151-0.53,1.677c-0.263,0.53-0.53,1.06-0.793,1.504
				c-0.313,0.497-0.699,0.943-1.146,1.323c-0.785,0.851-1.751,1.514-2.828,1.94c-1.06,0.455-2.2,0.695-3.353,0.707
				c-2.359-0.008-4.616-0.962-6.268-2.646c-0.447-0.38-0.834-0.826-1.146-1.323c-0.267-0.444-0.53-0.974-0.793-1.504
				c-0.2-0.544-0.348-1.105-0.444-1.677c-0.146-0.546-0.205-1.112-0.177-1.677C77.142,111.02,77.352,109.852,77.772,108.752z
				 M47.401,147.95c0.859-0.78,1.844-1.409,2.914-1.858c2.132-0.97,4.579-0.97,6.711,0c1.091,0.407,2.084,1.041,2.914,1.858
				c1.61,1.693,2.523,3.931,2.556,6.268c-0.017,2.34-0.932,4.583-2.556,6.268c-0.831,0.815-1.824,1.446-2.914,1.854
				c-2.138,0.943-4.573,0.943-6.711,0c-1.069-0.449-2.054-1.076-2.914-1.854c-0.353-0.444-0.703-0.884-1.056-1.323
				c-0.335-0.492-0.603-1.027-0.797-1.591c-0.253-0.501-0.432-1.037-0.53-1.591c-0.101-0.583-0.16-1.172-0.177-1.763
				C44.875,151.881,45.79,149.643,47.401,147.95z M20.216,262.003c-0.799-0.844-1.429-1.833-1.858-2.914
				c-0.937-2.139-0.937-4.572,0-6.711c0.449-1.069,1.077-2.053,1.858-2.91c0.857-0.78,1.841-1.409,2.909-1.858
				c2.151-0.879,4.561-0.879,6.711,0c1.07,0.449,2.055,1.077,2.914,1.858c0.778,0.858,1.404,1.842,1.854,2.909
				c0.943,2.138,0.943,4.573,0,6.711c-0.429,1.08-1.058,2.068-1.854,2.914c-0.86,0.778-1.845,1.405-2.914,1.854
				c-2.138,0.943-4.573,0.943-6.711,0C22.058,263.407,21.074,262.78,20.216,262.003z M39.634,314.524L39.634,314.524
				c-1.66,1.661-3.919,2.584-6.268,2.56c-2.333,0.001-4.57-0.932-6.211-2.59c-1.641-1.658-2.551-3.904-2.526-6.237
				c-0.008-2.345,0.911-4.597,2.556-6.268c0.407-0.396,0.852-0.751,1.328-1.06c0.471-0.316,0.974-0.582,1.5-0.793
				c0.541-0.228,1.103-0.405,1.677-0.53c2.878-0.536,5.837,0.352,7.944,2.383c0.43,0.431,0.814,0.905,1.147,1.414
				c0.267,0.44,0.53,0.97,0.797,1.5c0.199,0.544,0.346,1.105,0.44,1.677c0.146,0.546,0.205,1.112,0.177,1.677
				C42.217,310.605,41.295,312.864,39.634,314.524z M42.017,204.886L42.017,204.886c-0.093,0.572-0.24,1.133-0.44,1.677
				c-0.267,0.53-0.53,1.06-0.797,1.5c-0.31,0.5-0.697,0.948-1.146,1.328c-1.651,1.685-3.909,2.638-6.268,2.647
				c-2.333-0.01-4.563-0.965-6.181-2.647c-1.657-1.627-2.58-3.859-2.556-6.181c-0.009-1.176,0.2-2.344,0.616-3.444
				c0.428-1.074,1.091-2.039,1.94-2.823c0.361-0.445,0.814-0.807,1.328-1.061c0.468-0.346,0.971-0.642,1.5-0.884
				c0.544-0.199,1.105-0.346,1.677-0.44c2.589-0.531,5.279,0.136,7.319,1.816c2.04,1.68,3.211,4.192,3.185,6.835
				C42.223,203.774,42.163,204.34,42.017,204.886z M59.94,363.52c-0.831,0.815-1.824,1.446-2.914,1.854
				c-2.138,0.943-4.573,0.943-6.711,0c-1.069-0.449-2.054-1.076-2.914-1.854c-3.414-3.481-3.414-9.054,0-12.534
				c0.859-0.78,1.844-1.409,2.914-1.858c2.151-0.879,4.561-0.879,6.711,0c1.091,0.407,2.084,1.04,2.914,1.858
				C63.348,354.469,63.348,360.037,59.94,363.52z M94.099,402.714c-0.425,1.076-1.088,2.041-1.94,2.823
				c-0.809,0.823-1.769,1.483-2.828,1.944c-1.066,0.424-2.206,0.634-3.353,0.616c-0.593,0.029-1.187-0.031-1.763-0.177
				c-0.571-0.104-1.133-0.251-1.681-0.44c-0.526-0.267-0.97-0.53-1.5-0.797c-0.482-0.333-0.925-0.717-1.323-1.146
				c-0.823-0.807-1.482-1.766-1.94-2.823c-0.42-1.099-0.631-2.267-0.621-3.444c-0.018-1.148,0.193-2.288,0.621-3.353
				c0.458-1.058,1.117-2.016,1.94-2.823c0.399-0.43,0.842-0.815,1.323-1.151c0.53-0.263,0.974-0.53,1.5-0.793
				c0.53-0.177,1.151-0.353,1.681-0.53c1.719-0.361,3.508-0.176,5.116,0.53c2.123,0.945,3.822,2.643,4.767,4.767
				c0.455,1.06,0.695,2.2,0.707,3.353C94.795,400.452,94.555,401.622,94.099,402.714z M136.651,433.257
				c-0.085,0.584-0.264,1.15-0.53,1.677c-0.176,0.543-0.446,1.05-0.797,1.5c-0.349,0.53-0.703,0.97-1.056,1.414
				c-0.444,0.353-0.884,0.707-1.323,1.06c-0.492,0.334-1.027,0.601-1.591,0.793c-0.501,0.253-1.037,0.432-1.591,0.53
				c-0.583,0.101-1.172,0.16-1.763,0.177c-1.155-0.014-2.296-0.254-3.358-0.707c-1.08-0.426-2.067-1.055-2.909-1.854
				c-0.402-0.433-0.757-0.906-1.06-1.414c-0.351-0.45-0.621-0.957-0.797-1.5c-0.267-0.526-0.445-1.093-0.526-1.677
				c-0.104-0.553-0.163-1.114-0.177-1.677c0.033-2.337,0.947-4.576,2.56-6.268c0.856-0.781,1.84-1.408,2.909-1.854
				c1.61-0.706,3.4-0.891,5.121-0.53c0.554,0.094,1.09,0.273,1.59,0.531c0.563,0.192,1.098,0.459,1.591,0.793
				c0.462,0.327,0.904,0.681,1.323,1.061c0.816,0.83,1.448,1.823,1.854,2.914c0.495,1.047,0.737,2.196,0.707,3.353
				C136.812,432.143,136.753,432.703,136.651,433.257L136.651,433.257z M185.112,455.235L185.112,455.235
				c-0.428,1.076-1.09,2.042-1.94,2.828c-0.381,0.448-0.829,0.835-1.328,1.146c-0.44,0.263-0.97,0.53-1.5,0.793
				c-0.53,0.177-1.056,0.353-1.677,0.53c-0.553,0.104-1.114,0.163-1.677,0.177c-2.359-0.008-4.616-0.962-6.268-2.647
				c-0.795-0.833-1.451-1.787-1.944-2.828c-0.424-1.066-0.634-2.206-0.616-3.353c-0.009-1.176,0.2-2.344,0.616-3.444
				c0.493-1.039,1.149-1.992,1.944-2.823c2.086-2.068,5.064-2.962,7.944-2.383c0.571,0.096,1.133,0.245,1.677,0.444
				c0.53,0.263,1.06,0.526,1.5,0.793c0.499,0.311,0.947,0.698,1.328,1.147c0.849,0.784,1.512,1.749,1.94,2.823
				c0.446,1.094,0.686,2.262,0.707,3.444C185.807,453.035,185.567,454.175,185.112,455.235z M238.168,460.533
				c-0.098,0.553-0.277,1.089-0.53,1.591c-0.194,0.563-0.462,1.098-0.797,1.591c-0.349,0.44-0.703,0.879-1.056,1.323
				c-3.481,3.414-9.054,3.414-12.534,0c-1.627-1.683-2.544-3.927-2.56-6.268c0.012-1.154,0.251-2.295,0.703-3.358
				c0.449-1.069,1.077-2.052,1.858-2.909c2.526-2.546,6.341-3.312,9.653-1.937c3.312,1.375,5.463,4.618,5.442,8.204
				C238.325,459.361,238.266,459.95,238.168,460.533L238.168,460.533z M288.306,458.063c-0.799,0.873-1.8,1.539-2.914,1.94
				c-2.136,0.943-4.571,0.943-6.707,0c-1.091-0.445-2.082-1.105-2.914-1.94c-1.623-1.65-2.541-3.866-2.56-6.181
				c0.002-2.343,0.921-4.593,2.56-6.268c3.539-3.267,8.995-3.267,12.534,0c0.427,0.377,0.786,0.824,1.06,1.323
				c0.325,0.481,0.62,0.982,0.884,1.5c0.189,0.548,0.336,1.11,0.44,1.681c0.146,0.576,0.206,1.17,0.177,1.763
				C290.889,454.204,289.964,456.436,288.306,458.063z M337.302,437.848L337.302,437.848c-0.859,0.779-1.844,1.406-2.914,1.853
				c-1.061,0.453-2.2,0.693-3.353,0.707c-2.348,0.023-4.607-0.9-6.267-2.56c-1.66-1.661-2.583-3.919-2.56-6.267
				c0.012-1.153,0.251-2.292,0.703-3.353c0.405-1.092,1.039-2.085,1.858-2.914c2.535-2.509,6.334-3.241,9.621-1.854
				c1.071,0.446,2.056,1.073,2.914,1.854C340.716,428.794,340.716,434.367,337.302,437.848z M229.517,432.287
				c-97.507,0-176.552-79.045-176.552-176.552S132.01,79.183,229.517,79.183s176.552,79.045,176.552,176.552
				C405.971,353.201,326.983,432.189,229.517,432.287z M379.319,405.537L379.319,405.537c-1.651,1.676-3.916,2.601-6.268,2.56
				c-1.147,0.017-2.287-0.193-3.353-0.616c-1.058-0.46-2.016-1.12-2.823-1.944c-1.703-1.639-2.661-3.904-2.651-6.268
				c0.014-1.153,0.254-2.293,0.707-3.353c0.949-2.121,2.646-3.818,4.767-4.767c3.309-1.311,7.08-0.549,9.621,1.944
				c1.658,1.625,2.583,3.855,2.56,6.177C381.902,401.618,380.98,403.877,379.319,405.537z"/>
			<path d="M273.655,211.597c-0.015-4.869-3.958-8.813-8.828-8.828h-52.966v17.655h52.966
				C269.697,220.41,273.641,216.467,273.655,211.597z"/>
			<path d="M269.241,273.39h-57.379v26.483h57.379c7.313,0,13.241-5.928,13.241-13.241S276.554,273.39,269.241,273.39z"/>
			<path d="M301.109,250.086c-3.527-3.043-4.069-8.308-1.236-12.005c5.878-7.578,9.075-16.892,9.092-26.483
				c0.054-21.568-15.533-39.996-36.811-43.52c-4.25-0.732-7.348-4.428-7.327-8.74v-18.361h-17.655v17.655
				c-0.015,4.869-3.958,8.813-8.828,8.828h-35.31c-4.869-0.015-8.813-3.958-8.828-8.828v-17.655h-17.655v17.655
				c-0.015,4.869-3.958,8.813-8.828,8.828h-17.655v17.655h17.655c4.869,0.015,8.813,3.958,8.828,8.828v35.31
				c-0.015,4.869-3.958,8.813-8.828,8.828h-17.655v17.655h17.655c4.869,0.015,8.813,3.958,8.828,8.828v44.138
				c-0.015,4.869-3.958,8.813-8.828,8.828h-17.655v17.655h17.655c4.869,0.015,8.813,3.958,8.828,8.828v17.655h17.655v-17.655
				c0.015-4.869,3.958-8.813,8.828-8.828h35.31c4.869,0.015,8.813,3.958,8.828,8.828v17.655h17.655v-17.832
				c-0.005-4.608,3.529-8.449,8.121-8.828c19.508-1.462,36.224-14.508,42.381-33.076
				C321.487,283.363,315.878,262.914,301.109,250.086z M194.207,193.942c0.015-4.869,3.958-8.813,8.828-8.828h61.793
				c14.626,0,26.483,11.857,26.483,26.483s-11.857,26.483-26.483,26.483h-61.793c-4.869-0.015-8.813-3.958-8.828-8.828V193.942z
				 M269.241,317.528h-66.207c-4.869-0.015-8.813-3.958-8.828-8.828v-44.138c0.015-4.869,3.958-8.813,8.828-8.828h66.207
				c17.064,0,30.897,13.833,30.897,30.897S286.305,317.528,269.241,317.528z"/>
			<path d="M229.517,96.839c-87.756,0-158.897,71.14-158.897,158.897s71.14,158.897,158.897,158.897s158.896-71.14,158.896-158.897
				C388.344,168.008,317.245,96.908,229.517,96.839z M332.151,307.336c-7.412,22.583-26.375,39.45-49.669,44.178v18.979
				c-0.015,4.869-3.958,8.813-8.828,8.828h-35.31c-4.869-0.015-8.813-3.958-8.828-8.828v-17.655h-17.655v17.655
				c-0.015,4.869-3.958,8.813-8.828,8.828h-35.31c-4.869-0.015-8.813-3.958-8.828-8.828v-17.655h-17.655
				c-4.869-0.015-8.813-3.958-8.828-8.828v-35.31c0.015-4.869,3.958-8.813,8.828-8.828h17.655V273.39h-17.655
				c-4.869-0.015-8.813-3.958-8.828-8.828v-35.31c0.015-4.869,3.958-8.813,8.828-8.828h17.655V202.77h-17.655
				c-4.869-0.015-8.813-3.958-8.828-8.828v-35.31c0.015-4.869,3.958-8.813,8.828-8.828h17.655v-17.655
				c0.015-4.869,3.958-8.813,8.828-8.828h35.31c4.869,0.015,8.813,3.958,8.828,8.828v17.655h17.655v-17.655
				c0.015-4.869,3.958-8.813,8.828-8.828h35.31c4.869,0.015,8.813,3.958,8.828,8.828v20.215
				c18.115,5.355,32.771,18.725,39.763,36.274c6.992,17.548,5.546,37.334-3.923,53.68
				C334.284,259.929,339.563,284.753,332.151,307.336z"/>
			<path d="M365.55,461.771c-35.44,23.666-76.474,37.608-118.996,40.43c5.385,0.441,11.299,0.706,18.008,0.706
				c76.972-0.01,149.537-35.917,196.237-97.103h-35.31C408.76,427.662,388.502,446.577,365.55,461.771z"/>
			<path d="M437.76,388.149h35.31c10.657-16.535,19.226-34.325,25.512-52.966h-35.31
				C456.986,353.824,448.417,371.614,437.76,388.149z"/>
			<path d="M468.657,317.528h35.31c4.434-17.327,6.95-35.089,7.503-52.966h-35.31C475.607,282.44,473.091,300.201,468.657,317.528z"
				/>
			<path d="M476.16,246.908h35.31c-0.553-17.877-3.069-35.639-7.503-52.966h-35.31C473.091,211.269,475.607,229.031,476.16,246.908z
				"/>
			<path d="M463.272,176.287h35.31c-6.286-18.64-14.855-36.431-25.512-52.966h-35.31
				C448.417,139.856,456.986,157.647,463.272,176.287z"/>
			<path d="M425.49,105.666h35.31C414.099,44.48,341.535,8.573,264.563,8.563c-6.709,0-12.535,0.265-17.92,0.706
				c42.494,2.823,83.5,16.765,118.908,40.43C388.502,64.894,408.76,83.809,425.49,105.666z"/>
		</g>
	</g>
</g>
<g>
</g>
<g>
</g>
<g>
</g>
<g>
</g>
<g>
</g>
<g>
</g>
<g>
</g>
<g>
</g>
<g>
</g>
<g>
</g>
<g>
</g>
<g>
</g>
<g>
</g>
<g>
</g>
<g>
</g>
</svg>
